<?xml version="1.0" encoding="utf-8"?>
<!-- Generator: Adobe Illustrator 22.1.0, SVG Export Plug-In . SVG Version: 6.00 Build 0)  -->
<svg version="1.1" xmlns="http://www.w3.org/2000/svg" xmlns:xlink="http://www.w3.org/1999/xlink" x="0px" y="0px"
	 viewBox="0 0 841.9 514" style="enable-background:new 0 0 841.9 514;" xml:space="preserve">
<style type="text/css">
	.st0{fill:#4BC7EB;}
</style>
<g id="life_is_a_game">
</g>
<g id="M">
</g>
<g id="Q">
</g>
<g id="F">
</g>
<g id="logo_solo">
	<g>
		<g>
			<path class="st0" d="M289.9,149.1h58.6l58.9,132.5l58.9-132.5h58.6v216.7H465v-84.2l-44.3,84.2H394l-44.3-84.2v84.2h-59.8V149.1z
				"/>
		</g>
		<g>
			<path class="st0" d="M625,309.7c17.1,9.1,36.2,13.7,57.2,13.7c21,0,39.9-4.5,56.9-13.6l20,20l34.7-34.7L775.8,277
				c1.2-1.8,2.4-3.6,3.5-5.4c9.8-16.3,14.7-35.1,14.7-56.3c0-21.2-4.9-40-14.7-56.5c-7.6-12.8-17.5-23.4-29.5-31.8H614.3
				c-12.1,8.4-22,18.9-29.7,31.8c-9.8,16.4-14.7,35.3-14.7,56.5c0,21.2,4.9,40,14.7,56.3C594.4,287.9,607.9,300.6,625,309.7z
				 M646.7,178.7c9.4-9.1,21.3-13.7,35.5-13.7c14.1,0,25.8,4.6,35.1,13.7c9.3,9.1,14,21.3,14,36.6c0,10.3-2.2,19.3-6.5,26.9
				c-4.4,7.6-10.3,13.5-17.7,17.5c-7.4,4.1-15.7,6.1-24.8,6.1c-9.3,0-17.7-2-25.3-6.1c-7.5-4.1-13.5-9.9-17.8-17.5
				c-4.4-7.6-6.5-16.6-6.5-26.9C632.6,200,637.3,187.8,646.7,178.7z"/>
			<path class="st0" d="M682.2,365.7c-21,0-40.1,4.6-57.2,13.7c-4.3,2.3-8.4,4.8-12.3,7.6h138.5c-3.8-2.8-7.9-5.3-12.1-7.6
				C722.2,370.3,703.2,365.7,682.2,365.7z"/>
		</g>
		<g>
			<path class="st0" d="M72,149.1h173.6v53.7H135.9v29.6h66.7v49.1h-66.7v83.4H72V149.1z"/>
		</g>
	</g>
</g>
</svg>
