<?xml version="1.0" encoding="utf-8"?>
<!-- Generator: Adobe Illustrator 21.1.0, SVG Export Plug-In . SVG Version: 6.00 Build 0)  -->
<svg version="1.1" id="Layer_1" xmlns="http://www.w3.org/2000/svg" xmlns:xlink="http://www.w3.org/1999/xlink" x="0px" y="0px"
	 width="125.1px" height="82.3px" viewBox="0 0 125.1 82.3" style="enable-background:new 0 0 125.1 82.3;" xml:space="preserve">
<style type="text/css">
	.st0{fill-rule:evenodd;clip-rule:evenodd;fill:#FFFFFF;}
	.st1{fill:#FFFFFF;}
	.st2{fill:#F07F0A;}
</style>
<g>
	<path class="st0" d="M114.1,72.5c-0.1,0.4-0.3,0.7-0.5,0.6c-0.3-0.1-0.7-0.7-0.6-1.6c0.1-0.7,0.5-1.5,1.1-2.3
		C114.3,70.4,114.3,71.5,114.1,72.5 M114.4,68c-0.5-1.9-1.4-4-2.6-5.9c-1.6-2.5-5.3-6.9-11.4-8l-0.1,0.5c5.9,1,9.5,5.3,11.1,7.7
		c1.3,2,2.2,4.2,2.6,6.1c-0.8,1-1.4,2-1.5,3c-0.2,1.2,0.4,2.1,1,2.2c0,0,0.1,0,0.1,0c0.3,0,0.7-0.1,1-1c0.3-1.1,0.3-2.5,0-4
		c1.2-1.3,3-2.6,5-3.5l-0.2-0.5C117.4,65.5,115.7,66.7,114.4,68 M124.3,61.9c-0.4-0.4-0.9-0.6-1.4-0.6c-0.6,0-1,0.2-1.4,0.6
		c-0.4,0.4-0.6,0.9-0.6,1.4c0,0.6,0.2,1,0.6,1.4c0.4,0.4,0.9,0.6,1.4,0.6c0.6,0,1-0.2,1.4-0.6c0.4-0.4,0.6-0.9,0.6-1.4
		C124.9,62.8,124.7,62.3,124.3,61.9"/>
	<path class="st0" d="M79.8,57.3c1.2,0,2.1,0.4,2.7,1.1c0.6,0.7,0.9,2,0.9,3.8c0,0.7-0.1,1.4-0.2,2c-0.1,0.6-0.3,1.1-0.6,1.5
		c-0.3,0.4-0.7,0.7-1.1,0.9c-0.5,0.2-1.1,0.3-1.9,0.3c-1.3,0-2.1-0.4-2.6-1.1c-0.5-0.8-0.8-2-0.8-3.6c0-0.6,0-1.2,0.1-1.8
		c0.1-0.6,0.2-1.1,0.5-1.6c0.2-0.4,0.6-0.8,1-1.1C78.4,57.5,79,57.3,79.8,57.3 M84.8,76.8c0,4.3-4.1,4.5-5,4.5c-1.4,0-5.4,0-5.4-4.5
		c0-4.6,4.8-4.5,7.5-4.3C83.2,73.3,84.8,74.8,84.8,76.8 M100.7,48.6c0.2,0.4,0.3,0.8,0.3,1.2c0,0.5-0.2,1-0.5,1.4
		c-0.3,0.5-1.1,0.8-1.8,0.8c-0.4,0-0.8-0.1-1.1-0.3C97.2,51.4,97,51,97,50.5c0-0.5,0.1-0.9,0.4-1.3c0.2-0.3,0.3-0.6,0.3-1
		c0-0.5-0.2-0.8-0.6-0.9c-0.1-0.1-0.3-0.1-0.6-0.1c-0.8,0-2,0.4-2.6,1.2c-0.7,0.9-1.1,2.3-1.1,4.1V57h7.5v16.7h-3.6V58.2h-3.9v15.5
		h-3.6V58.2h-3.9c1.5,1.5,1.6,3.5,1.6,4.1c0,2.2-1.8,4.8-5,5.5c0,1.9,3.2,3.5,4.6,4.8c3.3,3,1.6,7.5-2,8.8c-7,2.7-13.4-0.9-13.4-4.4
		c0-3.8,4.6-5.8,8.6-5.8c0.6,0,1.2,0,1.7,0c-0.4-0.5-1.1-1.7-1.1-3.3H80c-4.8,0-7.1-3.1-7.1-5.6c0-2.7,2.3-6.1,6.9-6.1
		c1.5,0,2.7,0.4,3.6,0.7h5.8v-1.3c0-0.9,0-1.7,0.1-2.3c0.1-0.7,0.2-1.2,0.4-1.7c0.2-0.5,0.3-1,0.6-1.3c0.2-0.4,0.4-0.7,0.7-1
		c0.8-1,1.6-1.7,2.5-2.2c1-0.6,2.1-0.9,3.2-0.9c0.6,0,1.1,0.1,1.5,0.2c0.6,0.2,1.1,0.5,1.5,0.9C100.2,47.7,100.5,48.1,100.7,48.6"/>
	<path class="st1" d="M7.4,62.5c0,0.1,0,0.3-0.1,0.4C7.2,62.9,7.1,63,6.9,63c-0.1,0-0.2,0-0.3-0.1c-0.1-0.1-0.2-0.1-0.2-0.2
		l-0.7-1.8H1.8L1,62.7c0,0.1-0.1,0.2-0.2,0.2C0.7,63,0.6,63,0.5,63c-0.2,0-0.3,0-0.4-0.1C0,62.7,0,62.6,0,62.5c0-0.1,0-0.1,0.1-0.2
		L3,55.3C3,55.2,3.1,55.1,3.2,55c0.1-0.1,0.2-0.1,0.4-0.1h0.1c0.2,0,0.3,0,0.4,0.1c0.1,0.1,0.2,0.2,0.3,0.3l2.9,6.9
		C7.4,62.3,7.4,62.4,7.4,62.5 M3.7,56.2l-1.6,3.7h3.1L3.7,56.2z"/>
	<path class="st1" d="M18.3,58.7c0.1,0.1,0.2,0.2,0.2,0.4v2.6c0,0.2,0,0.3-0.1,0.4c-0.1,0.1-0.2,0.2-0.3,0.3
		c-0.9,0.4-1.7,0.6-2.6,0.6c-0.8,0-1.5-0.2-2.1-0.5c-0.6-0.3-1.1-0.8-1.4-1.5c-0.3-0.6-0.5-1.3-0.5-2.1c0-0.8,0.2-1.5,0.5-2.2
		c0.4-0.6,0.8-1.1,1.4-1.5c0.6-0.3,1.3-0.5,2-0.5c0.6,0,1.1,0.1,1.6,0.2c0.4,0.1,0.9,0.3,1.3,0.6c0.1,0,0.1,0.1,0.2,0.2
		c0,0.1,0.1,0.2,0.1,0.3c0,0.1,0,0.2-0.1,0.3c-0.1,0.1-0.2,0.1-0.4,0.1c-0.1,0-0.2,0-0.2-0.1c-0.4-0.2-0.7-0.4-1.1-0.5
		c-0.4-0.1-0.8-0.2-1.2-0.2c-0.6,0-1.1,0.1-1.6,0.4c-0.5,0.2-0.8,0.6-1.1,1.1c-0.3,0.5-0.4,1-0.4,1.7c0,0.6,0.1,1.1,0.4,1.6
		c0.2,0.5,0.6,0.8,1.1,1.1c0.5,0.3,1,0.4,1.7,0.4c0.7,0,1.4-0.2,2-0.5v-2.1h-1.9c-0.1,0-0.2,0-0.3-0.1c-0.1-0.1-0.1-0.2-0.1-0.3
		c0-0.1,0-0.2,0.1-0.3c0.1-0.1,0.2-0.1,0.3-0.1h2.3C18,58.5,18.2,58.6,18.3,58.7"/>
	<path class="st1" d="M21.9,55.7c-0.2,0.1-0.2,0.4-0.2,0.8v0.6h1.4c0.1,0,0.2,0,0.3,0.1c0.1,0.1,0.1,0.2,0.1,0.3
		c0,0.1,0,0.2-0.1,0.3c-0.1,0.1-0.2,0.1-0.3,0.1h-1.4v4.5c0,0.1-0.1,0.3-0.2,0.4c-0.1,0.1-0.2,0.1-0.4,0.1c-0.1,0-0.3,0-0.4-0.1
		c-0.1-0.1-0.1-0.2-0.1-0.4V58h-0.7c-0.1,0-0.2,0-0.3-0.1c-0.1-0.1-0.1-0.2-0.1-0.3c0-0.1,0-0.2,0.1-0.3c0.1-0.1,0.2-0.1,0.3-0.1
		h0.7v-0.7c0-0.5,0.1-0.8,0.2-1.1c0.2-0.3,0.4-0.5,0.6-0.6c0.3-0.1,0.5-0.2,0.8-0.2c0.4,0,0.7,0.1,1,0.2c0.1,0,0.1,0.1,0.2,0.2
		c0,0.1,0.1,0.2,0.1,0.2c0,0.1,0,0.2-0.1,0.3c-0.1,0.1-0.2,0.1-0.3,0.1c-0.1,0-0.2,0-0.3,0c-0.2,0-0.3,0-0.3,0
		C22.3,55.4,22,55.5,21.9,55.7"/>
	<path class="st1" d="M25.7,55.3c0,0.2-0.1,0.3-0.2,0.4c-0.1,0.1-0.3,0.2-0.4,0.2h-0.1c-0.2,0-0.3-0.1-0.4-0.2
		c-0.1-0.1-0.2-0.3-0.2-0.4v0c0-0.2,0.1-0.3,0.2-0.4c0.1-0.1,0.3-0.2,0.4-0.2h0.1c0.2,0,0.3,0.1,0.4,0.2
		C25.7,55,25.7,55.1,25.7,55.3L25.7,55.3z M25.5,57.2c0.1,0.1,0.1,0.2,0.1,0.4v4.9c0,0.1-0.1,0.3-0.2,0.4c-0.1,0.1-0.2,0.1-0.4,0.1
		c-0.1,0-0.3,0-0.4-0.1c-0.1-0.1-0.1-0.2-0.1-0.4v-4.9c0-0.1,0-0.3,0.1-0.4c0.1-0.1,0.2-0.2,0.4-0.2C25.2,57,25.4,57.1,25.5,57.2"/>
	<path class="st1" d="M37.1,58.7c0.1,0.1,0.2,0.2,0.2,0.4v2.6c0,0.2,0,0.3-0.1,0.4c-0.1,0.1-0.2,0.2-0.3,0.3
		c-0.9,0.4-1.7,0.6-2.6,0.6c-0.8,0-1.5-0.2-2.1-0.5c-0.6-0.3-1.1-0.8-1.4-1.5c-0.3-0.6-0.5-1.3-0.5-2.1c0-0.8,0.2-1.5,0.5-2.2
		c0.4-0.6,0.8-1.1,1.4-1.5c0.6-0.3,1.3-0.5,2-0.5c0.6,0,1.1,0.1,1.6,0.2c0.4,0.1,0.9,0.3,1.3,0.6c0.1,0,0.1,0.1,0.2,0.2
		c0,0.1,0.1,0.2,0.1,0.3c0,0.1,0,0.2-0.1,0.3c-0.1,0.1-0.2,0.1-0.4,0.1c-0.1,0-0.2,0-0.2-0.1c-0.4-0.2-0.7-0.4-1.1-0.5
		c-0.4-0.1-0.8-0.2-1.2-0.2c-0.6,0-1.1,0.1-1.6,0.4c-0.5,0.2-0.8,0.6-1.1,1.1c-0.3,0.5-0.4,1-0.4,1.7c0,0.6,0.1,1.1,0.4,1.6
		c0.2,0.5,0.6,0.8,1.1,1.1c0.5,0.3,1,0.4,1.7,0.4c0.7,0,1.4-0.2,2-0.5v-2.1h-1.9c-0.1,0-0.2,0-0.3-0.1C34,59.3,34,59.1,34,59
		c0-0.1,0-0.2,0.1-0.3c0.1-0.1,0.2-0.1,0.3-0.1h2.3C36.9,58.5,37,58.6,37.1,58.7"/>
	<path class="st1" d="M42.3,57.1c0.1,0.1,0.1,0.2,0.1,0.4c0,0.1,0,0.3-0.1,0.4C42.2,57.9,42,58,41.9,58h-0.1c-0.4,0-0.7,0.1-1,0.3
		c-0.3,0.2-0.6,0.4-0.8,0.7v3.5c0,0.1-0.1,0.3-0.2,0.4c-0.1,0.1-0.2,0.1-0.4,0.1c-0.1,0-0.3,0-0.4-0.1c-0.1-0.1-0.1-0.2-0.1-0.4
		v-4.9c0-0.1,0-0.3,0.1-0.4c0.1-0.1,0.2-0.2,0.4-0.2c0.1,0,0.3,0.1,0.4,0.2c0.1,0.1,0.2,0.2,0.2,0.4V58c0.5-0.7,1.1-1.1,1.8-1.1h0.1
		C42.1,57,42.2,57,42.3,57.1"/>
	<path class="st1" d="M47.6,57.3c0.4,0.3,0.8,0.6,1,1.1c0.2,0.5,0.4,1,0.4,1.6c0,0.6-0.1,1.1-0.4,1.6c-0.2,0.5-0.6,0.8-1,1.1
		c-0.4,0.3-1,0.4-1.5,0.4c-0.6,0-1.1-0.1-1.6-0.4c-0.4-0.3-0.8-0.6-1-1.1c-0.2-0.5-0.4-1-0.4-1.6c0-0.6,0.1-1.1,0.4-1.6
		c0.2-0.5,0.6-0.8,1-1.1c0.4-0.3,1-0.4,1.6-0.4C46.6,57,47.1,57.1,47.6,57.3 M46.9,61.9c0.3-0.1,0.5-0.4,0.7-0.7
		c0.2-0.3,0.3-0.7,0.3-1.2c0-0.5-0.1-0.9-0.3-1.2c-0.2-0.3-0.4-0.5-0.7-0.7c-0.3-0.1-0.6-0.2-0.9-0.2c-0.3,0-0.6,0.1-0.9,0.2
		c-0.3,0.1-0.5,0.4-0.7,0.7c-0.2,0.3-0.3,0.7-0.3,1.2c0,0.5,0.1,0.9,0.3,1.2c0.2,0.3,0.4,0.5,0.7,0.7c0.3,0.1,0.6,0.2,0.9,0.2
		C46.4,62.1,46.7,62,46.9,61.9"/>
	<path class="st1" d="M51.4,62.8c-0.3-0.2-0.5-0.5-0.7-0.8c-0.2-0.3-0.2-0.7-0.2-1.1v-3.3c0-0.1,0.1-0.3,0.2-0.4
		c0.1-0.1,0.2-0.1,0.4-0.1s0.3,0,0.4,0.1c0.1,0.1,0.1,0.2,0.1,0.4v3.1c0,0.9,0.4,1.4,1.3,1.4c0.4,0,0.7-0.1,1-0.3
		c0.3-0.2,0.6-0.5,0.9-0.8v-3.4c0-0.1,0.1-0.3,0.2-0.4c0.1-0.1,0.2-0.1,0.4-0.1c0.1,0,0.3,0,0.4,0.1c0.1,0.1,0.1,0.2,0.1,0.4v4.9
		c0,0.1-0.1,0.3-0.1,0.4c-0.1,0.1-0.2,0.2-0.4,0.2c-0.1,0-0.3-0.1-0.4-0.2c-0.1-0.1-0.2-0.2-0.2-0.4V62c-0.3,0.3-0.6,0.6-0.9,0.8
		c-0.3,0.2-0.7,0.3-1.2,0.3C52,63.1,51.7,63,51.4,62.8"/>
	<path class="st1" d="M58.5,62.2v2.9c0,0.2,0,0.3-0.1,0.4c-0.1,0.1-0.2,0.1-0.4,0.1c-0.1,0-0.3-0.1-0.4-0.2
		c-0.1-0.1-0.1-0.2-0.1-0.4v-7.6c0-0.1,0-0.3,0.1-0.4c0.1-0.1,0.2-0.1,0.4-0.1c0.1,0,0.3,0,0.4,0.1c0.1,0.1,0.2,0.2,0.2,0.4v0.3
		c0.6-0.6,1.2-0.9,2-0.9c0.5,0,0.9,0.1,1.4,0.4c0.4,0.2,0.8,0.6,1,1.1c0.3,0.5,0.4,1,0.4,1.6c0,0.6-0.1,1.2-0.4,1.6
		c-0.3,0.5-0.6,0.8-1,1.1c-0.4,0.2-0.9,0.4-1.4,0.4C59.7,63.1,59.1,62.8,58.5,62.2 M59.3,58.2c-0.3,0.2-0.6,0.4-0.8,0.6v2.4
		c0.2,0.3,0.5,0.5,0.8,0.6c0.3,0.2,0.6,0.2,1,0.2c0.6,0,1-0.2,1.4-0.5c0.3-0.4,0.5-0.9,0.5-1.5c0-0.7-0.2-1.2-0.5-1.5
		c-0.3-0.4-0.8-0.5-1.4-0.5C60,57.9,59.6,58,59.3,58.2"/>
	<path class="st1" d="M19.1,72.5c0.1,0.1,0.1,0.2,0.1,0.3c0,0.2-0.1,0.3-0.3,0.4c-0.4,0.2-0.8,0.4-1.2,0.5c-0.4,0.1-0.9,0.2-1.4,0.2
		c-0.8,0-1.5-0.2-2.1-0.5c-0.6-0.3-1.1-0.8-1.4-1.4c-0.3-0.6-0.5-1.4-0.5-2.2c0-0.8,0.2-1.6,0.5-2.2c0.3-0.6,0.8-1.1,1.4-1.4
		c0.6-0.3,1.3-0.5,2.1-0.5c0.5,0,1,0.1,1.4,0.2c0.4,0.1,0.8,0.3,1.2,0.5c0.2,0.1,0.3,0.2,0.3,0.4c0,0.1,0,0.2-0.1,0.3
		c-0.1,0.1-0.2,0.1-0.3,0.1c-0.1,0-0.1,0-0.2,0c-0.3-0.2-0.7-0.3-1-0.4c-0.3-0.1-0.7-0.1-1.1-0.1c-0.7,0-1.2,0.1-1.7,0.4
		c-0.5,0.3-0.8,0.6-1,1.1c-0.2,0.5-0.4,1-0.4,1.6c0,0.6,0.1,1.1,0.4,1.6c0.2,0.5,0.6,0.8,1,1.1c0.5,0.3,1,0.4,1.7,0.4
		c0.4,0,0.8,0,1.1-0.1c0.3-0.1,0.7-0.2,1-0.4c0.1,0,0.1,0,0.2,0C18.9,72.4,19.1,72.4,19.1,72.5"/>
	<path class="st1" d="M24.6,68.2c0.4,0.3,0.8,0.6,1,1.1c0.2,0.5,0.4,1,0.4,1.6c0,0.6-0.1,1.1-0.4,1.6c-0.2,0.5-0.6,0.8-1,1.1
		c-0.4,0.3-1,0.4-1.5,0.4c-0.6,0-1.1-0.1-1.6-0.4c-0.4-0.3-0.8-0.6-1-1.1c-0.2-0.5-0.4-1-0.4-1.6c0-0.6,0.1-1.1,0.4-1.6
		c0.2-0.5,0.6-0.8,1-1.1c0.4-0.3,1-0.4,1.6-0.4C23.6,67.9,24.2,68,24.6,68.2 M24,72.8c0.3-0.1,0.5-0.4,0.7-0.7
		c0.2-0.3,0.3-0.7,0.3-1.2c0-0.5-0.1-0.9-0.3-1.2c-0.2-0.3-0.4-0.5-0.7-0.7c-0.3-0.1-0.6-0.2-0.9-0.2c-0.3,0-0.6,0.1-0.9,0.2
		c-0.3,0.1-0.5,0.4-0.7,0.7c-0.2,0.3-0.3,0.7-0.3,1.2c0,0.5,0.1,0.9,0.3,1.2c0.2,0.3,0.4,0.5,0.7,0.7c0.3,0.1,0.6,0.2,0.9,0.2
		C23.4,73,23.7,72.9,24,72.8"/>
	<path class="st1" d="M35.4,68.2c0.3,0.2,0.5,0.5,0.6,0.8c0.1,0.3,0.2,0.7,0.2,1.1v3.3c0,0.1-0.1,0.3-0.2,0.4
		c-0.1,0.1-0.2,0.1-0.4,0.1c-0.1,0-0.3,0-0.4-0.1c-0.1-0.1-0.1-0.2-0.1-0.4v-3.1c0-0.5-0.1-0.9-0.3-1.1c-0.2-0.2-0.5-0.4-0.9-0.4
		c-0.4,0-0.7,0.1-1,0.3c-0.3,0.2-0.5,0.5-0.7,0.8v3.4c0,0.1-0.1,0.3-0.2,0.4c-0.1,0.1-0.2,0.1-0.4,0.1c-0.1,0-0.3,0-0.4-0.1
		c-0.1-0.1-0.1-0.2-0.1-0.4v-3.1c0-0.5-0.1-0.9-0.3-1.1c-0.2-0.2-0.5-0.4-0.9-0.4c-0.4,0-0.7,0.1-1,0.3c-0.3,0.2-0.5,0.5-0.7,0.8
		v3.4c0,0.1-0.1,0.3-0.2,0.4c-0.1,0.1-0.2,0.1-0.4,0.1c-0.1,0-0.3,0-0.4-0.1c-0.1-0.1-0.1-0.2-0.1-0.4v-4.9c0-0.1,0-0.3,0.1-0.4
		c0.1-0.1,0.2-0.2,0.4-0.2c0.1,0,0.3,0.1,0.4,0.2c0.1,0.1,0.2,0.2,0.2,0.4v0.5c0.2-0.3,0.5-0.6,0.8-0.8c0.3-0.2,0.7-0.3,1.2-0.3
		c0.4,0,0.8,0.1,1.1,0.3c0.3,0.2,0.5,0.5,0.7,0.8c0.5-0.8,1.2-1.2,2.1-1.2C34.8,67.9,35.1,68,35.4,68.2"/>
	<path class="st1" d="M39.1,73.1V76c0,0.2,0,0.3-0.1,0.4c-0.1,0.1-0.2,0.1-0.4,0.1c-0.1,0-0.3-0.1-0.4-0.2C38.1,76.3,38,76.1,38,76
		v-7.6c0-0.1,0-0.3,0.1-0.4c0.1-0.1,0.2-0.1,0.4-0.1c0.1,0,0.3,0,0.4,0.1c0.1,0.1,0.2,0.2,0.2,0.4v0.3c0.6-0.6,1.2-0.9,2-0.9
		c0.5,0,0.9,0.1,1.4,0.4c0.4,0.2,0.8,0.6,1,1.1c0.3,0.5,0.4,1,0.4,1.6c0,0.6-0.1,1.2-0.4,1.6c-0.3,0.5-0.6,0.8-1,1.1
		c-0.4,0.2-0.9,0.4-1.4,0.4C40.3,73.9,39.6,73.7,39.1,73.1 M39.9,69.1c-0.3,0.2-0.6,0.4-0.8,0.6v2.4c0.2,0.3,0.5,0.5,0.8,0.6
		c0.3,0.2,0.6,0.2,1,0.2c0.6,0,1-0.2,1.4-0.5c0.3-0.4,0.5-0.9,0.5-1.5s-0.2-1.2-0.5-1.5c-0.3-0.4-0.8-0.5-1.4-0.5
		C40.5,68.8,40.2,68.9,39.9,69.1"/>
	<path class="st1" d="M48.8,68.2c0.4,0.2,0.6,0.5,0.8,0.8c0.2,0.3,0.3,0.7,0.3,1.1v3.3c0,0.1-0.1,0.3-0.2,0.4
		c-0.1,0.1-0.2,0.1-0.4,0.1c-0.1,0-0.3,0-0.4-0.1c-0.1-0.1-0.1-0.2-0.1-0.4v-0.3c-0.6,0.6-1.3,0.9-2.2,0.9c-0.3,0-0.6-0.1-0.9-0.2
		c-0.3-0.1-0.5-0.3-0.7-0.6c-0.2-0.3-0.3-0.6-0.3-0.9c0-0.6,0.2-1,0.7-1.4c0.4-0.3,1.1-0.5,2-0.5h1.4v-0.1c0-0.5-0.1-0.9-0.4-1.1
		c-0.2-0.2-0.6-0.3-1.2-0.3c-0.3,0-0.5,0-0.8,0.1c-0.2,0-0.5,0.1-0.8,0.2c-0.1,0-0.1,0-0.1,0c-0.1,0-0.2,0-0.3-0.1
		c-0.1-0.1-0.1-0.2-0.1-0.3c0-0.2,0.1-0.4,0.3-0.4c0.7-0.3,1.3-0.4,2-0.4C48,67.9,48.4,68,48.8,68.2 M48,72.8
		c0.3-0.2,0.6-0.4,0.8-0.6v-1h-1.3c-1.2,0-1.7,0.3-1.7,0.9c0,0.3,0.1,0.5,0.3,0.7c0.2,0.2,0.5,0.3,0.9,0.3
		C47.4,73,47.7,72.9,48,72.8"/>
	<path class="st1" d="M55.9,68.1c0.3,0.2,0.5,0.5,0.7,0.8c0.2,0.3,0.2,0.7,0.2,1.1v3.3c0,0.1-0.1,0.3-0.2,0.4
		c-0.1,0.1-0.2,0.1-0.4,0.1c-0.1,0-0.3,0-0.4-0.1c-0.1-0.1-0.1-0.2-0.1-0.4v-3.1c0-0.9-0.4-1.4-1.3-1.4c-0.4,0-0.7,0.1-1,0.3
		c-0.3,0.2-0.6,0.5-0.9,0.8v3.4c0,0.1-0.1,0.3-0.2,0.4c-0.1,0.1-0.2,0.1-0.4,0.1c-0.1,0-0.3,0-0.4-0.1c-0.1-0.1-0.1-0.2-0.1-0.4
		v-4.9c0-0.1,0-0.3,0.1-0.4c0.1-0.1,0.2-0.2,0.4-0.2c0.1,0,0.3,0.1,0.4,0.2c0.1,0.1,0.2,0.2,0.2,0.4v0.5c0.3-0.3,0.6-0.6,0.9-0.8
		c0.3-0.2,0.7-0.3,1.2-0.3C55.2,67.9,55.6,68,55.9,68.1"/>
	<path class="st1" d="M63.5,68.6l-3.1,7.5c-0.1,0.2-0.3,0.4-0.5,0.4c-0.1,0-0.3,0-0.4-0.1c-0.1-0.1-0.1-0.2-0.1-0.4
		c0-0.1,0-0.1,0-0.2l0.7-1.9L58,68.7c0-0.1,0-0.1,0-0.2c0-0.1,0-0.3,0.1-0.4c0.1-0.1,0.2-0.2,0.4-0.2c0.1,0,0.2,0,0.3,0.1
		c0.1,0.1,0.2,0.1,0.2,0.2l1.8,4.4l1.8-4.4c0.1-0.2,0.3-0.3,0.5-0.3c0.1,0,0.3,0.1,0.4,0.2c0.1,0.1,0.1,0.2,0.1,0.4
		C63.5,68.5,63.5,68.6,63.5,68.6"/>
	<path class="st1" d="M8.4,24.4v13.4c0,0.3-0.3,0.6-0.6,0.6H1.4c-0.3,0-0.6-0.3-0.6-0.6V5.7c0-1.5,0.5-2.8,1.4-3.7
		c1-0.9,2.3-1.4,3.8-1.4h11.7c7.3,0,11.1,3.3,11.1,9.8c0,2.6-0.9,5.3-2.3,7.6c-0.4,0.7-1.8,2.9-1.8,2.9c1,0.6,1.6,2.1,2,3.7
		l3.8,13.1c0,0.4-0.3,0.7-0.6,0.7h-6.5c-0.3,0-0.5-0.3-0.6-0.6l-3.5-11.9c-0.3-1.2-0.9-1.5-1.6-1.5H8.4z M9.3,7.3
		c-0.5,0-0.9,0.4-0.9,0.9v9.3h10.5c0,0,1.2-1.5,2-3c0.6-1.2,1.2-2.5,1.1-4.2c-0.1-1.5-1.2-3-4-3H9.3z"/>
	<path class="st2" d="M50.6,7.6c-6.6,0-11.9,5.3-11.9,11.9c0,6.6,5.3,11.9,11.9,11.9c6.6,0,11.9-5.3,11.9-11.9
		c0-4.6-2.6-8.6-6.3-10.6c-0.6-0.4-0.4-1-0.1-1.3l3.8-4.3c0.4-0.4,0.8-0.6,1.5-0.1c5.3,3.5,8.7,9.5,8.7,16.2
		c0,10.8-8.7,19.5-19.5,19.5c-10.8,0-19.5-8.7-19.5-19.5C31.1,8.7,39.8,0,50.6,0c0.9,0,1.8,0.1,2.7,0.2c0.5,0.1,1,0.3,1,1.1
		c-0.1,1.1-0.4,4.4-0.6,5.6c-0.1,0.6-0.8,0.9-1.2,0.8C51.8,7.6,51.2,7.6,50.6,7.6"/>
	<path class="st1" d="M98,6.8c0,0.3-0.3,0.6-0.6,0.6H87.1l-4.8,0c-0.5,0-0.9,0.4-0.9,0.9v4.4v3.7h10.3c0.3,0,0.5,0.2,0.6,0.4
		c0.1,0.1,0,0.3,0,0.4l-2.8,5.4c-0.2,0.4-0.3,0.6-0.6,0.6h-7.5v14.6c0,0.3-0.3,0.6-0.6,0.6h-6.5c-0.3,0-0.6-0.3-0.6-0.6V5.6
		c0-1.5,0.5-2.7,1.4-3.6c1-1,2.3-1.4,3.9-1.4h18.3c0.3,0,0.6,0.3,0.6,0.6V6.8z"/>
	<path class="st1" d="M125.1,6.8c0,0.3-0.3,0.6-0.6,0.6h-10.3l-4.8,0c-0.5,0-0.9,0.4-0.9,0.9v4.4v3.7h10.3c0.3,0,0.5,0.2,0.6,0.4
		c0.1,0.1,0,0.3,0,0.4l-2.8,5.4c-0.2,0.4-0.3,0.6-0.6,0.6h-7.5v14.6c0,0.3-0.3,0.6-0.6,0.6h-6.5c-0.3,0-0.6-0.3-0.6-0.6V5.6
		c0-1.5,0.5-2.7,1.4-3.6c1-1,2.3-1.4,3.9-1.4h18.3c0.3,0,0.6,0.3,0.6,0.6V6.8z"/>
</g>
</svg>
